<?xml version="1.0" standalone="no"?>
<!DOCTYPE svg PUBLIC "-//W3C//DTD SVG 20010904//EN"
 "http://www.w3.org/TR/2001/REC-SVG-20010904/DTD/svg10.dtd">
<svg version="1.0" xmlns="http://www.w3.org/2000/svg"
 width="95.000000pt" height="95.000000pt" viewBox="0 0 95.000000 95.000000"
 preserveAspectRatio="xMidYMid meet">
<metadata>
Created by potrace 1.11, written by Peter Selinger 2001-2013
</metadata>
<g transform="translate(0.000000,95.000000) scale(0.100000,-0.100000)"
fill="#000000" stroke="none">
<path d="M236 587 c-265 -97 -278 -115 -128 -178 290 -122 306 -126 321 -86
15 37 -10 59 -117 102 -56 22 -103 43 -106 46 -3 3 52 25 122 48 132 45 177
75 165 109 -8 21 -23 32 -43 31 -8 0 -105 -32 -214 -72z"/>
<path d="M702 638 c-131 -20 -197 -100 -197 -240 0 -73 1 -78 33 -111 77 -80
238 -77 307 5 14 16 25 40 25 53 0 23 0 23 -52 9 -29 -7 -63 -14 -76 -14 -26
0 -76 45 -67 60 3 6 32 10 63 10 31 0 74 5 94 11 114 31 136 149 39 199 -23
11 -41 19 -41 17 0 -3 -17 -1 -37 2 -21 4 -62 3 -91 -1z m48 -88 c0 -40 -19
-78 -42 -86 -11 -3 -22 -3 -25 0 -7 6 13 63 32 93 21 31 35 29 35 -7z"/>
<path d="M930 353 c-7 -27 -24 -60 -38 -75 -30 -32 -22 -48 24 -48 l34 0 0 85
c0 47 -2 85 -4 85 -2 0 -9 -21 -16 -47z"/>
</g>
</svg>
